<mxfile host="Electron" agent="Mozilla/5.0 (Windows NT 10.0; Win64; x64) AppleWebKit/537.36 (KHTML, like Gecko) draw.io/24.7.8 Chrome/128.0.6613.36 Electron/32.0.1 Safari/537.36" version="24.7.8">
  <diagram name="Page-1" id="SiHi19AIP5MpILOSEFdm">
    <mxGraphModel dx="915" dy="823" grid="1" gridSize="10" guides="1" tooltips="1" connect="1" arrows="1" fold="1" page="1" pageScale="1" pageWidth="850" pageHeight="1100" math="0" shadow="0">
      <root>
        <mxCell id="0" />
        <mxCell id="1" parent="0" />
        <mxCell id="H-OSbln9SCOL1p3oFSyE-1" value="" style="endArrow=classic;html=1;rounded=0;" edge="1" parent="1">
          <mxGeometry width="50" height="50" relative="1" as="geometry">
            <mxPoint x="240" y="190" as="sourcePoint" />
            <mxPoint x="240" y="210" as="targetPoint" />
          </mxGeometry>
        </mxCell>
        <mxCell id="H-OSbln9SCOL1p3oFSyE-2" value="if (tmp == nullptr)" style="rounded=1;whiteSpace=wrap;html=1;" vertex="1" parent="1">
          <mxGeometry x="150" y="210" width="190" height="20" as="geometry" />
        </mxCell>
        <mxCell id="H-OSbln9SCOL1p3oFSyE-3" value="lock_guard&amp;lt;mutex&amp;gt; lock(m_mutex);" style="rounded=1;whiteSpace=wrap;html=1;" vertex="1" parent="1">
          <mxGeometry x="115" y="243" width="260" height="20" as="geometry" />
        </mxCell>
        <mxCell id="H-OSbln9SCOL1p3oFSyE-4" value="temp =m_instance;" style="rounded=1;whiteSpace=wrap;html=1;" vertex="1" parent="1">
          <mxGeometry x="150" y="278" width="190" height="15" as="geometry" />
        </mxCell>
        <mxCell id="H-OSbln9SCOL1p3oFSyE-5" value="if (tmp == nullptr)" style="rounded=1;whiteSpace=wrap;html=1;" vertex="1" parent="1">
          <mxGeometry x="150" y="309" width="190" height="17" as="geometry" />
        </mxCell>
        <mxCell id="H-OSbln9SCOL1p3oFSyE-6" value="tmp = new Singleton;" style="rounded=1;whiteSpace=wrap;html=1;" vertex="1" parent="1">
          <mxGeometry x="150" y="340" width="190" height="20" as="geometry" />
        </mxCell>
        <mxCell id="H-OSbln9SCOL1p3oFSyE-7" value="atomic_thread_fence(memory_order_release);" style="rounded=1;whiteSpace=wrap;html=1;fillColor=#999999;" vertex="1" parent="1">
          <mxGeometry x="85" y="372" width="320" height="22" as="geometry" />
        </mxCell>
        <mxCell id="H-OSbln9SCOL1p3oFSyE-8" value="m_instance.store(temp, memory_order_relaxed);" style="rounded=1;whiteSpace=wrap;html=1;" vertex="1" parent="1">
          <mxGeometry x="85" y="405" width="320" height="20" as="geometry" />
        </mxCell>
        <mxCell id="H-OSbln9SCOL1p3oFSyE-9" value="release lock" style="rounded=1;whiteSpace=wrap;html=1;" vertex="1" parent="1">
          <mxGeometry x="150" y="439" width="190" height="17" as="geometry" />
        </mxCell>
        <mxCell id="H-OSbln9SCOL1p3oFSyE-10" value="return temp;" style="rounded=1;whiteSpace=wrap;html=1;" vertex="1" parent="1">
          <mxGeometry x="150" y="470" width="190" height="20" as="geometry" />
        </mxCell>
        <mxCell id="H-OSbln9SCOL1p3oFSyE-11" value="tmp = m_instance.load(memory_order_relaxed);" style="rounded=1;whiteSpace=wrap;html=1;" vertex="1" parent="1">
          <mxGeometry x="480" y="425" width="320" height="20" as="geometry" />
        </mxCell>
        <mxCell id="H-OSbln9SCOL1p3oFSyE-12" value="atomic_thread_fence(memory_order_acquire);" style="rounded=1;whiteSpace=wrap;html=1;fillColor=#999999;" vertex="1" parent="1">
          <mxGeometry x="480" y="456" width="320" height="20" as="geometry" />
        </mxCell>
        <mxCell id="H-OSbln9SCOL1p3oFSyE-13" value="if (tmp == nullptr)" style="rounded=1;whiteSpace=wrap;html=1;" vertex="1" parent="1">
          <mxGeometry x="545" y="490" width="190" height="17" as="geometry" />
        </mxCell>
        <mxCell id="H-OSbln9SCOL1p3oFSyE-14" value="return temp;" style="rounded=1;whiteSpace=wrap;html=1;" vertex="1" parent="1">
          <mxGeometry x="545" y="520" width="190" height="20" as="geometry" />
        </mxCell>
        <mxCell id="H-OSbln9SCOL1p3oFSyE-15" value="" style="endArrow=none;dashed=1;html=1;dashPattern=1 3;strokeWidth=2;rounded=0;" edge="1" parent="1">
          <mxGeometry width="50" height="50" relative="1" as="geometry">
            <mxPoint x="130" y="360" as="sourcePoint" />
            <mxPoint x="80" y="210" as="targetPoint" />
          </mxGeometry>
        </mxCell>
        <mxCell id="H-OSbln9SCOL1p3oFSyE-16" value="" style="endArrow=classic;html=1;rounded=0;exitX=0.475;exitY=1.008;exitDx=0;exitDy=0;exitPerimeter=0;" edge="1" parent="1" source="H-OSbln9SCOL1p3oFSyE-2">
          <mxGeometry width="50" height="50" relative="1" as="geometry">
            <mxPoint x="240" y="233" as="sourcePoint" />
            <mxPoint x="240" y="243" as="targetPoint" />
          </mxGeometry>
        </mxCell>
        <mxCell id="H-OSbln9SCOL1p3oFSyE-17" value="" style="endArrow=classic;html=1;rounded=0;exitX=0.475;exitY=1.008;exitDx=0;exitDy=0;exitPerimeter=0;" edge="1" parent="1">
          <mxGeometry width="50" height="50" relative="1" as="geometry">
            <mxPoint x="240" y="263" as="sourcePoint" />
            <mxPoint x="240" y="276" as="targetPoint" />
          </mxGeometry>
        </mxCell>
        <mxCell id="H-OSbln9SCOL1p3oFSyE-19" value="" style="endArrow=classic;html=1;rounded=0;exitX=0.475;exitY=1.008;exitDx=0;exitDy=0;exitPerimeter=0;" edge="1" parent="1">
          <mxGeometry width="50" height="50" relative="1" as="geometry">
            <mxPoint x="240" y="296" as="sourcePoint" />
            <mxPoint x="240" y="309" as="targetPoint" />
          </mxGeometry>
        </mxCell>
        <mxCell id="H-OSbln9SCOL1p3oFSyE-20" value="" style="endArrow=classic;html=1;rounded=0;exitX=0.475;exitY=1.008;exitDx=0;exitDy=0;exitPerimeter=0;" edge="1" parent="1">
          <mxGeometry width="50" height="50" relative="1" as="geometry">
            <mxPoint x="240" y="327" as="sourcePoint" />
            <mxPoint x="240" y="340" as="targetPoint" />
          </mxGeometry>
        </mxCell>
        <mxCell id="H-OSbln9SCOL1p3oFSyE-21" value="" style="endArrow=classic;html=1;rounded=0;exitX=0.475;exitY=1.008;exitDx=0;exitDy=0;exitPerimeter=0;" edge="1" parent="1">
          <mxGeometry width="50" height="50" relative="1" as="geometry">
            <mxPoint x="240" y="359" as="sourcePoint" />
            <mxPoint x="240" y="372" as="targetPoint" />
          </mxGeometry>
        </mxCell>
        <mxCell id="H-OSbln9SCOL1p3oFSyE-22" value="" style="endArrow=classic;html=1;rounded=0;exitX=0.475;exitY=1.008;exitDx=0;exitDy=0;exitPerimeter=0;" edge="1" parent="1">
          <mxGeometry width="50" height="50" relative="1" as="geometry">
            <mxPoint x="240" y="392" as="sourcePoint" />
            <mxPoint x="240" y="405" as="targetPoint" />
          </mxGeometry>
        </mxCell>
        <mxCell id="H-OSbln9SCOL1p3oFSyE-23" value="" style="endArrow=classic;html=1;rounded=0;exitX=0.475;exitY=1.008;exitDx=0;exitDy=0;exitPerimeter=0;" edge="1" parent="1">
          <mxGeometry width="50" height="50" relative="1" as="geometry">
            <mxPoint x="240" y="426" as="sourcePoint" />
            <mxPoint x="240" y="439" as="targetPoint" />
          </mxGeometry>
        </mxCell>
        <mxCell id="H-OSbln9SCOL1p3oFSyE-24" value="" style="endArrow=classic;html=1;rounded=0;exitX=0.475;exitY=1.008;exitDx=0;exitDy=0;exitPerimeter=0;" edge="1" parent="1">
          <mxGeometry width="50" height="50" relative="1" as="geometry">
            <mxPoint x="240" y="457" as="sourcePoint" />
            <mxPoint x="240" y="470" as="targetPoint" />
          </mxGeometry>
        </mxCell>
        <mxCell id="H-OSbln9SCOL1p3oFSyE-25" value="" style="endArrow=classic;html=1;rounded=0;" edge="1" parent="1">
          <mxGeometry width="50" height="50" relative="1" as="geometry">
            <mxPoint x="630" y="385" as="sourcePoint" />
            <mxPoint x="630" y="425" as="targetPoint" />
          </mxGeometry>
        </mxCell>
        <mxCell id="H-OSbln9SCOL1p3oFSyE-26" value="" style="endArrow=classic;html=1;rounded=0;exitX=0.475;exitY=1.008;exitDx=0;exitDy=0;exitPerimeter=0;" edge="1" parent="1">
          <mxGeometry width="50" height="50" relative="1" as="geometry">
            <mxPoint x="630" y="445" as="sourcePoint" />
            <mxPoint x="630" y="458" as="targetPoint" />
          </mxGeometry>
        </mxCell>
        <mxCell id="H-OSbln9SCOL1p3oFSyE-27" value="" style="endArrow=classic;html=1;rounded=0;exitX=0.475;exitY=1.008;exitDx=0;exitDy=0;exitPerimeter=0;" edge="1" parent="1">
          <mxGeometry width="50" height="50" relative="1" as="geometry">
            <mxPoint x="630" y="477" as="sourcePoint" />
            <mxPoint x="630" y="490" as="targetPoint" />
          </mxGeometry>
        </mxCell>
        <mxCell id="H-OSbln9SCOL1p3oFSyE-28" value="" style="endArrow=classic;html=1;rounded=0;exitX=0.475;exitY=1.008;exitDx=0;exitDy=0;exitPerimeter=0;" edge="1" parent="1">
          <mxGeometry width="50" height="50" relative="1" as="geometry">
            <mxPoint x="630" y="507" as="sourcePoint" />
            <mxPoint x="630" y="520" as="targetPoint" />
          </mxGeometry>
        </mxCell>
        <mxCell id="H-OSbln9SCOL1p3oFSyE-29" value="Thread 2" style="text;html=1;align=center;verticalAlign=middle;whiteSpace=wrap;rounded=0;" vertex="1" parent="1">
          <mxGeometry x="600" y="360" width="60" height="30" as="geometry" />
        </mxCell>
        <mxCell id="H-OSbln9SCOL1p3oFSyE-30" value="Thread 1" style="text;html=1;align=center;verticalAlign=middle;whiteSpace=wrap;rounded=0;" vertex="1" parent="1">
          <mxGeometry x="210" y="160" width="60" height="30" as="geometry" />
        </mxCell>
        <mxCell id="H-OSbln9SCOL1p3oFSyE-31" value="" style="endArrow=none;dashed=1;html=1;dashPattern=1 3;strokeWidth=2;rounded=0;" edge="1" parent="1">
          <mxGeometry width="50" height="50" relative="1" as="geometry">
            <mxPoint x="360" y="360" as="sourcePoint" />
            <mxPoint x="400" y="210" as="targetPoint" />
          </mxGeometry>
        </mxCell>
        <mxCell id="H-OSbln9SCOL1p3oFSyE-32" value="" style="endArrow=none;dashed=1;html=1;dashPattern=1 3;strokeWidth=2;rounded=0;" edge="1" parent="1">
          <mxGeometry width="50" height="50" relative="1" as="geometry">
            <mxPoint x="132" y="366" as="sourcePoint" />
            <mxPoint x="362" y="366" as="targetPoint" />
          </mxGeometry>
        </mxCell>
        <mxCell id="H-OSbln9SCOL1p3oFSyE-33" value="" style="endArrow=none;dashed=1;html=1;dashPattern=1 3;strokeWidth=2;rounded=0;" edge="1" parent="1">
          <mxGeometry width="50" height="50" relative="1" as="geometry">
            <mxPoint x="510" y="540" as="sourcePoint" />
            <mxPoint x="520" y="490" as="targetPoint" />
          </mxGeometry>
        </mxCell>
        <mxCell id="H-OSbln9SCOL1p3oFSyE-34" value="" style="endArrow=none;dashed=1;html=1;dashPattern=1 3;strokeWidth=2;rounded=0;" edge="1" parent="1">
          <mxGeometry width="50" height="50" relative="1" as="geometry">
            <mxPoint x="770" y="540" as="sourcePoint" />
            <mxPoint x="750" y="480" as="targetPoint" />
          </mxGeometry>
        </mxCell>
        <mxCell id="H-OSbln9SCOL1p3oFSyE-35" value="" style="endArrow=none;dashed=1;html=1;dashPattern=1 3;strokeWidth=2;rounded=0;" edge="1" parent="1">
          <mxGeometry width="50" height="50" relative="1" as="geometry">
            <mxPoint x="522" y="485" as="sourcePoint" />
            <mxPoint x="752" y="485" as="targetPoint" />
          </mxGeometry>
        </mxCell>
        <mxCell id="H-OSbln9SCOL1p3oFSyE-36" value="Everyting&amp;nbsp;&lt;div&gt;here...&lt;/div&gt;" style="text;html=1;align=center;verticalAlign=middle;whiteSpace=wrap;rounded=0;" vertex="1" parent="1">
          <mxGeometry x="390" y="248" width="60" height="30" as="geometry" />
        </mxCell>
        <mxCell id="H-OSbln9SCOL1p3oFSyE-37" value="... is visible to everyting here" style="text;html=1;align=center;verticalAlign=middle;whiteSpace=wrap;rounded=0;" vertex="1" parent="1">
          <mxGeometry x="410" y="500" width="90" height="50" as="geometry" />
        </mxCell>
        <mxCell id="H-OSbln9SCOL1p3oFSyE-39" value="" style="curved=1;endArrow=classic;html=1;rounded=0;entryX=0;entryY=0.5;entryDx=0;entryDy=0;strokeWidth=2;" edge="1" parent="1" target="H-OSbln9SCOL1p3oFSyE-12">
          <mxGeometry width="50" height="50" relative="1" as="geometry">
            <mxPoint x="405" y="380" as="sourcePoint" />
            <mxPoint x="455" y="330" as="targetPoint" />
            <Array as="points">
              <mxPoint x="435" y="380" />
              <mxPoint x="440" y="450" />
            </Array>
          </mxGeometry>
        </mxCell>
        <mxCell id="H-OSbln9SCOL1p3oFSyE-41" value="" style="curved=1;endArrow=classic;html=1;rounded=0;entryX=0;entryY=0.5;entryDx=0;entryDy=0;exitX=1;exitY=0.5;exitDx=0;exitDy=0;dashed=1;dashPattern=1 1;" edge="1" parent="1" source="H-OSbln9SCOL1p3oFSyE-8" target="H-OSbln9SCOL1p3oFSyE-11">
          <mxGeometry width="50" height="50" relative="1" as="geometry">
            <mxPoint x="415" y="390" as="sourcePoint" />
            <mxPoint x="490" y="476" as="targetPoint" />
            <Array as="points">
              <mxPoint x="430" y="410" />
              <mxPoint x="450" y="435" />
            </Array>
          </mxGeometry>
        </mxCell>
        <mxCell id="H-OSbln9SCOL1p3oFSyE-42" value="&lt;b&gt;synchronizes-with&lt;/b&gt;" style="text;html=1;align=center;verticalAlign=middle;whiteSpace=wrap;rounded=0;" vertex="1" parent="1">
          <mxGeometry x="380" y="465" width="100" height="30" as="geometry" />
        </mxCell>
        <mxCell id="H-OSbln9SCOL1p3oFSyE-43" value="Reads the pointer written" style="text;html=1;align=center;verticalAlign=middle;whiteSpace=wrap;rounded=0;" vertex="1" parent="1">
          <mxGeometry x="440" y="395" width="90" height="30" as="geometry" />
        </mxCell>
      </root>
    </mxGraphModel>
  </diagram>
</mxfile>
